<svg width="12" height="11" viewBox="0 0 12 11" fill="none" xmlns="http://www.w3.org/2000/svg">
<path d="M11 5.50033C11 4.86089 10.5707 4.30642 9.93171 4.00683C10.1561 3.38528 10.0293 2.71008 9.53659 2.25846C9.0439 1.80683 8.30732 1.69057 7.62927 1.89626C7.30732 1.31049 6.69756 0.916992 6 0.916992C5.30244 0.916992 4.69756 1.31049 4.37561 1.89626C3.69268 1.69057 2.9561 1.80683 2.46341 2.25846C1.97073 2.71008 1.84878 3.38528 2.07317 4.00683C1.43415 4.30642 1 4.86089 1 5.50033C1 6.13976 1.43415 6.69423 2.07317 6.99382C1.84878 7.61537 1.97073 8.29057 2.46341 8.7422C2.9561 9.19382 3.69268 9.30561 4.37073 9.10439C4.69756 9.69016 5.30244 10.0837 6 10.0837C6.69756 10.0837 7.30732 9.69016 7.62927 9.10439C8.30732 9.30561 9.0439 9.19382 9.53659 8.7422C10.0293 8.29057 10.1561 7.61537 9.93171 6.99382C10.5707 6.69423 11 6.13976 11 5.50033Z" fill="#29DFBE"/>
<path d="M4 5.95866L5.5 7.33366L8 4.12533" fill="#29DFBE"/>
<path d="M4 5.95866L5.5 7.33366L8 4.12533M11 5.50033C11 4.86089 10.5707 4.30642 9.93171 4.00683C10.1561 3.38528 10.0293 2.71008 9.53659 2.25846C9.0439 1.80683 8.30732 1.69057 7.62927 1.89626C7.30732 1.31049 6.69756 0.916992 6 0.916992C5.30244 0.916992 4.69756 1.31049 4.37561 1.89626C3.69268 1.69057 2.9561 1.80683 2.46341 2.25846C1.97073 2.71008 1.84878 3.38528 2.07317 4.00683C1.43415 4.30642 1 4.86089 1 5.50033C1 6.13976 1.43415 6.69423 2.07317 6.99382C1.84878 7.61537 1.97073 8.29057 2.46341 8.7422C2.9561 9.19382 3.69268 9.30561 4.37073 9.10439C4.69756 9.69016 5.30244 10.0837 6 10.0837C6.69756 10.0837 7.30732 9.69016 7.62927 9.10439C8.30732 9.30561 9.0439 9.19382 9.53659 8.7422C10.0293 8.29057 10.1561 7.61537 9.93171 6.99382C10.5707 6.69423 11 6.13976 11 5.50033Z" stroke="black" stroke-width="1.5" stroke-linecap="round" stroke-linejoin="round"/>
</svg>
